<svg xmlns="http://www.w3.org/2000/svg" version="1.1" viewBox="1.642241358757019 1.501190423965454 245.24887084960938 297.5793151855469" width="248.00" height="301.00">
<path fill="#000000" d="&#10;  M 2.69 185.80&#10;  Q 1.85 184.10 1.83 182.16&#10;  Q 1.50 151.11 1.75 118.15&#10;  Q 1.76 117.63 2.06 117.21&#10;  C 4.82 113.43 8.54 110.80 11.53 107.46&#10;  C 18.49 99.68 25.87 92.99 32.88 85.66&#10;  C 40.48 77.71 48.56 70.09 56.14 62.21&#10;  C 61.36 56.79 66.74 51.82 71.69 46.34&#10;  C 74.94 42.73 78.68 39.69 81.81 36.03&#10;  Q 84.19 33.24 87.16 30.91&#10;  C 90.58 28.23 92.59 24.50 95.88 21.59&#10;  C 99.58 18.31 103.01 14.35 106.60 10.60&#10;  Q 109.92 7.12 112.97 3.03&#10;  Q 113.90 1.79 115.60 1.73&#10;  Q 123.91 1.42 132.71 1.53&#10;  A 2.59 2.58 -16.0 0 1 134.84 2.70&#10;  C 138.55 8.37 143.65 13.42 148.18 18.38&#10;  C 150.72 21.16 153.77 23.27 156.31 26.00&#10;  Q 161.89 32.00 167.03 36.98&#10;  C 170.95 40.79 174.37 45.38 178.68 48.91&#10;  Q 182.43 51.98 185.51 55.68&#10;  Q 188.14 58.84 191.16 61.29&#10;  C 195.55 64.85 198.42 69.64 202.59 73.31&#10;  Q 206.44 76.70 209.43 79.80&#10;  Q 219.23 89.95 229.40 100.01&#10;  Q 232.06 102.65 234.53 105.35&#10;  C 238.43 109.62 243.27 113.30 246.00 118.28&#10;  Q 246.88 119.89 246.89 122.66&#10;  Q 246.90 151.29 246.82 180.21&#10;  C 246.81 181.48 246.58 182.54 245.82 183.58&#10;  Q 241.59 189.36 238.51 191.84&#10;  Q 234.54 195.04 231.69 198.12&#10;  C 228.15 201.95 224.12 204.88 220.79 208.91&#10;  C 217.23 213.24 212.65 216.59 208.83 220.71&#10;  C 205.64 224.14 201.77 227.01 198.82 230.64&#10;  Q 195.78 234.36 192.19 237.23&#10;  C 188.63 240.07 186.56 244.06 183.05 246.82&#10;  Q 178.61 250.33 174.88 254.41&#10;  C 170.72 258.98 165.91 262.76 162.03 267.63&#10;  C 159.43 270.91 155.92 273.24 153.04 276.36&#10;  Q 148.38 281.42 143.54 285.88&#10;  C 138.31 290.69 135.60 297.88 127.42 298.61&#10;  Q 125.53 298.78 123.74 298.99&#10;  C 119.04 299.54 114.07 297.54 111.04 294.17&#10;  Q 103.94 286.30 99.32 281.65&#10;  Q 96.32 278.62 93.47 275.59&#10;  C 90.28 272.20 86.52 269.48 83.32 265.58&#10;  Q 81.46 263.32 79.32 261.34&#10;  Q 68.43 251.33 58.65 240.34&#10;  C 55.52 236.82 51.35 234.34 48.50 230.66&#10;  C 45.13 226.29 40.62 223.45 37.02 219.38&#10;  C 33.35 215.25 28.91 211.79 25.42 207.32&#10;  C 23.20 204.46 20.06 202.43 17.48 199.84&#10;  Q 13.22 195.57 8.77 191.20&#10;  C 7.09 189.55 5.17 188.32 3.42 186.76&#10;  A 3.16 3.12 8.2 0 1 2.69 185.80&#10;  Z&#10;  M 224.67 172.12&#10;  C 224.55 168.70 225.17 165.55 225.33 162.24&#10;  Q 226.01 147.99 225.28 131.54&#10;  C 225.18 129.44 224.54 127.65 223.16 126.14&#10;  Q 217.40 119.87 211.38 113.21&#10;  C 208.07 109.56 204.26 106.73 201.15 103.13&#10;  C 197.38 98.76 193.27 94.84 189.20 90.84&#10;  C 186.94 88.61 185.06 85.99 182.68 83.88&#10;  Q 180.05 81.55 177.59 79.02&#10;  Q 171.26 72.53 164.84 65.86&#10;  C 162.00 62.91 159.71 59.42 156.37 56.84&#10;  Q 152.05 53.50 149.86 51.11&#10;  Q 142.69 43.29 134.74 34.93&#10;  C 133.53 33.67 132.10 31.74 130.39 30.31&#10;  C 128.28 28.55 126.94 26.45 124.98 24.59&#10;  A 0.87 0.87 0.0 0 0 123.71 24.67&#10;  C 121.99 26.75 120.35 28.74 118.23 30.46&#10;  Q 114.40 33.56 110.95 37.81&#10;  C 107.39 42.18 102.79 45.22 99.33 49.68&#10;  C 95.50 54.62 90.23 58.11 86.13 62.93&#10;  Q 80.61 69.43 74.14 74.93&#10;  C 70.57 77.97 68.11 81.88 64.71 85.03&#10;  C 59.13 90.18 54.09 95.82 48.35 101.16&#10;  C 45.83 103.52 43.92 106.30 41.12 108.48&#10;  C 35.69 112.71 31.46 118.94 26.67 123.86&#10;  C 24.93 125.65 23.41 128.05 23.44 130.64&#10;  Q 23.58 141.67 23.29 151.85&#10;  Q 23.19 155.53 23.72 158.95&#10;  C 24.47 163.70 24.36 168.22 24.44 173.04&#10;  C 24.48 175.16 25.75 176.80 27.23 178.16&#10;  C 31.87 182.44 35.73 186.93 40.40 191.00&#10;  C 45.21 195.20 49.05 200.07 53.65 203.96&#10;  Q 57.05 206.83 59.85 210.07&#10;  C 62.77 213.46 66.05 216.35 68.91 219.80&#10;  Q 71.46 222.88 75.00 225.48&#10;  C 78.53 228.08 80.76 232.18 84.19 235.09&#10;  Q 88.28 238.55 92.79 243.26&#10;  C 98.29 249.00 104.15 255.24 110.01 260.55&#10;  C 112.63 262.91 113.99 265.13 115.23 268.35&#10;  A 1.63 1.63 0.0 0 0 116.16 269.28&#10;  L 124.49 272.51&#10;  Q 125.00 272.71 125.48 272.44&#10;  Q 129.98 269.98 131.35 268.10&#10;  Q 134.10 264.34 135.11 263.36&#10;  Q 142.35 256.32 149.27 249.11&#10;  C 151.30 247.00 153.71 245.34 155.60 243.13&#10;  Q 157.65 240.73 159.94 238.49&#10;  Q 168.66 229.97 177.30 221.29&#10;  C 178.52 220.06 180.14 219.12 181.21 217.74&#10;  C 183.26 215.10 186.09 213.69 188.05 211.05&#10;  C 190.94 207.13 194.94 204.18 198.22 200.28&#10;  C 201.68 196.17 206.00 192.64 209.87 188.67&#10;  Q 216.73 181.62 223.43 175.18&#10;  A 4.07 4.05 67.2 0 0 224.67 172.12&#10;  Z" data-c-fill="fcf1e8"/>
<path fill="#000000" d="&#10;  M 212.99 134.69&#10;  Q 213.38 134.86 213.50 135.26&#10;  C 214.89 139.79 213.26 143.30 213.03 147.72&#10;  Q 212.66 155.04 212.29 162.21&#10;  Q 212.12 165.53 211.34 168.75&#10;  A 1.62 1.60 77.9 0 1 210.76 169.66&#10;  Q 202.45 176.37 195.45 184.40&#10;  Q 192.38 187.93 188.65 191.09&#10;  Q 184.35 194.72 180.18 199.25&#10;  Q 172.93 207.09 165.28 214.53&#10;  C 162.44 217.29 160.01 220.73 156.82 223.41&#10;  Q 152.52 227.02 149.40 230.72&#10;  C 146.25 234.45 142.35 237.43 139.11 241.03&#10;  C 134.43 246.24 129.18 250.78 124.56 255.97&#10;  A 0.67 0.67 0.0 0 1 123.60 256.01&#10;  Q 116.13 248.86 109.20 241.05&#10;  C 106.21 237.68 102.39 235.00 99.46 231.52&#10;  C 93.86 224.86 87.11 219.63 81.37 213.53&#10;  Q 67.32 198.61 53.57 185.18&#10;  C 48.56 180.29 43.90 175.08 38.55 170.22&#10;  Q 37.14 168.94 36.22 167.23&#10;  Q 35.98 166.78 36.01 166.26&#10;  Q 36.59 157.43 36.12 149.12&#10;  Q 35.68 141.27 35.56 134.51&#10;  C 35.54 133.10 36.37 132.01 37.29 131.02&#10;  C 40.05 128.07 43.34 125.79 46.07 122.78&#10;  Q 55.19 112.70 64.83 104.00&#10;  C 66.53 102.46 67.54 100.49 69.18 98.94&#10;  Q 81.37 87.42 89.79 78.28&#10;  C 90.67 77.32 91.19 76.34 92.26 75.50&#10;  Q 96.67 72.07 103.86 63.89&#10;  Q 109.76 57.17 123.90 43.88&#10;  Q 124.29 43.51 124.67 43.89&#10;  Q 135.70 55.02 146.72 66.18&#10;  C 148.64 68.13 150.20 70.54 152.34 72.29&#10;  Q 157.54 76.51 161.42 81.05&#10;  C 164.80 85.00 168.80 88.07 172.13 92.13&#10;  C 175.63 96.40 180.31 99.13 183.71 103.28&#10;  Q 187.48 107.87 191.97 111.93&#10;  Q 195.26 114.91 198.14 118.53&#10;  Q 201.99 123.37 207.38 127.52&#10;  Q 210.48 129.91 212.21 133.91&#10;  Q 212.45 134.45 212.99 134.69&#10;  Z&#10;  M 190.93 148.07&#10;  Q 191.23 144.29 189.14 141.86&#10;  C 181.08 132.47 171.48 124.12 163.17 114.51&#10;  C 159.25 109.97 154.62 106.07 150.40 101.73&#10;  Q 137.83 88.81 124.42 76.03&#10;  Q 124.03 75.65 123.64 76.03&#10;  Q 115.56 83.84 107.90 91.43&#10;  Q 105.90 93.42 103.96 95.13&#10;  Q 101.12 97.64 97.51 101.75&#10;  Q 93.92 105.83 89.36 109.47&#10;  C 83.57 114.09 80.01 120.37 74.34 125.08&#10;  C 70.18 128.54 66.60 133.05 63.03 137.11&#10;  C 59.51 141.12 56.53 142.44 57.08 148.71&#10;  Q 57.41 152.43 57.26 155.70&#10;  A 4.61 4.59 -64.6 0 0 58.41 158.95&#10;  C 60.87 161.74 63.80 163.87 66.31 166.64&#10;  Q 71.68 172.55 77.73 178.21&#10;  C 80.78 181.05 83.88 185.35 87.55 188.48&#10;  Q 93.85 193.86 96.80 197.06&#10;  C 102.77 203.51 108.45 208.69 114.99 215.97&#10;  Q 118.17 219.50 122.86 223.24&#10;  Q 123.28 223.57 123.79 223.44&#10;  Q 125.26 223.08 126.30 222.06&#10;  C 131.53 216.92 136.92 212.10 141.99 206.74&#10;  Q 151.14 197.07 160.53 187.78&#10;  Q 164.80 183.55 169.08 179.33&#10;  C 174.07 174.41 178.09 169.11 183.21 164.67&#10;  Q 186.40 161.89 189.07 158.04&#10;  C 191.20 154.96 190.66 151.58 190.93 148.07&#10;  Z&#10;  M 212.7760 137.5397&#10;  A 1.24 0.31 88.8 0 0 213.0599 136.2935&#10;  A 1.24 0.31 88.8 0 0 212.7240 135.0603&#10;  A 1.24 0.31 88.8 0 0 212.4401 136.3065&#10;  A 1.24 0.31 88.8 0 0 212.7760 137.5397&#10;  Z" data-c-fill="fcf1e8"/>
</svg>